<svg width="400" height="400" viewBox="0 0 400 400" fill="none" xmlns="http://www.w3.org/2000/svg">
<g clip-path="url(#clip0_47_314)">
<rect width="400" height="400" rx="18" fill="#DDEBFD"/>
<path d="M338.862 172.958C343.581 168.064 351.419 168.064 356.138 172.958L597.663 423.42C605.011 431.04 599.611 443.75 589.025 443.75H105.975C95.3893 443.75 89.9891 431.04 97.3374 423.42L338.862 172.958Z" fill="#4071F7"/>
<path d="M170.862 145.958C175.581 141.064 183.419 141.064 188.138 145.958L429.663 396.42C437.011 404.04 431.611 416.75 421.025 416.75H-62.0246C-72.6107 416.75 -78.0109 404.04 -70.6626 396.42L170.862 145.958Z" fill="#5392F9"/>
<circle cx="268" cy="119" r="45" fill="#5392F9"/>
</g>
<defs>
<clipPath id="clip0_47_314">
<rect width="400" height="400" rx="47" fill="white"/>
</clipPath>
</defs>
</svg>
