<svg width="200" height="128" viewBox="0 0 200 128" fill="none" xmlns="http://www.w3.org/2000/svg">
<rect width="200" height="127.361" rx="41" fill="#111111"/>
<path d="M114.84 64.645C130.915 64.3085 148.488 88.8591 148.488 88.8591H82.6445C82.6445 88.8591 99.2243 64.9719 114.84 64.645Z" fill="#FCFCFC"/>
<path d="M85.8086 46.0494C96.946 34.4522 126.728 39.4079 126.728 39.4079L80.1366 85.9329C80.1366 85.9329 74.9898 57.3148 85.8086 46.0494Z" fill="#FCFCFC"/>
<path d="M58.8507 64.3319C58.2133 53.0499 76.1376 40.0811 76.1376 40.0811L77.7183 86.3258C77.7183 86.3258 59.4699 75.2912 58.8507 64.3319Z" fill="#FCFCFC"/>
<path d="M53.8607 85.9024C47.9017 80.3043 50.4159 64.9761 50.4159 64.9761L74.3239 88.4143C74.3239 88.4143 59.6493 91.3403 53.8607 85.9024Z" fill="#FCFCFC"/>
</svg>
